<svg width="512" height="512" viewBox="0 0 512 512" fill="none" xmlns="http://www.w3.org/2000/svg" role="img" aria-labelledby="title desc">
  <title id="title">AITP Mark</title>
  <desc id="desc">A dark rounded-square AITP logo with a minimal robot head framed by ket brackets and a light-cone halo.</desc>
  <defs>
    <linearGradient id="bg" x1="42" y1="34" x2="462" y2="480" gradientUnits="userSpaceOnUse">
      <stop stop-color="#061725"/>
      <stop offset="0.54" stop-color="#091D31"/>
      <stop offset="1" stop-color="#040B13"/>
    </linearGradient>
    <radialGradient id="portal" cx="0" cy="0" r="1" gradientUnits="userSpaceOnUse" gradientTransform="translate(256 256) rotate(90) scale(164)">
      <stop stop-color="#12324D"/>
      <stop offset="0.68" stop-color="#0A1C2F"/>
      <stop offset="1" stop-color="#060E18"/>
    </radialGradient>
    <linearGradient id="coneStroke" x1="190" y1="156" x2="332" y2="356" gradientUnits="userSpaceOnUse">
      <stop stop-color="#72EAF4"/>
      <stop offset="1" stop-color="#7E8FFF"/>
    </linearGradient>
    <linearGradient id="ketStroke" x1="166" y1="148" x2="382" y2="352" gradientUnits="userSpaceOnUse">
      <stop stop-color="#83F4EB"/>
      <stop offset="1" stop-color="#A98BFF"/>
    </linearGradient>
    <linearGradient id="shellStroke" x1="204" y1="176" x2="306" y2="280" gradientUnits="userSpaceOnUse">
      <stop stop-color="#EAFBFF"/>
      <stop offset="0.58" stop-color="#9DECF7"/>
      <stop offset="1" stop-color="#9EABFF"/>
    </linearGradient>
    <linearGradient id="shellFill" x1="256" y1="184" x2="256" y2="278" gradientUnits="userSpaceOnUse">
      <stop stop-color="#E1F9FF" stop-opacity="0.18"/>
      <stop offset="1" stop-color="#75C8FF" stop-opacity="0.08"/>
    </linearGradient>
    <linearGradient id="visorFill" x1="224" y1="206" x2="290" y2="236" gradientUnits="userSpaceOnUse">
      <stop stop-color="#8AF6EE"/>
      <stop offset="1" stop-color="#73A5FF"/>
    </linearGradient>
    <filter id="coreGlow" x="150" y="140" width="212" height="232" filterUnits="userSpaceOnUse" color-interpolation-filters="sRGB">
      <feGaussianBlur stdDeviation="18"/>
    </filter>
    <filter id="visorGlow" x="208" y="194" width="100" height="52" filterUnits="userSpaceOnUse" color-interpolation-filters="sRGB">
      <feGaussianBlur stdDeviation="6"/>
    </filter>
  </defs>

  <rect x="24" y="24" width="464" height="464" rx="96" fill="url(#bg)"/>
  <rect x="24.5" y="24.5" width="463" height="463" rx="95.5" stroke="#61DEF1" stroke-opacity="0.16"/>

  <circle cx="256" cy="256" r="146" fill="url(#portal)"/>
  <circle cx="256" cy="256" r="118" stroke="#7EE8F2" stroke-opacity="0.14" stroke-width="2"/>
  <circle cx="256" cy="256" r="88" stroke="#A98BFF" stroke-opacity="0.14" stroke-width="2"/>

  <circle cx="188" cy="322" r="84" fill="#1CE2C7" fill-opacity="0.08"/>
  <circle cx="306" cy="192" r="74" fill="#6BA8FF" fill-opacity="0.08"/>
  <circle cx="258" cy="244" r="68" fill="#8CF4F0" fill-opacity="0.1" filter="url(#coreGlow)"/>

  <g opacity="0.72" stroke="url(#coneStroke)" stroke-linecap="round" fill="none">
    <path d="M256 148C214 186 190 224 182 256" stroke-width="6"/>
    <path d="M256 148C298 186 322 224 330 256" stroke-width="6"/>
    <path d="M256 364C214 326 190 288 182 256" stroke-width="6"/>
    <path d="M256 364C298 326 322 288 330 256" stroke-width="6"/>
    <path d="M214 256C228 248 284 248 298 256" stroke-width="4" opacity="0.7"/>
  </g>

  <g stroke="url(#ketStroke)" stroke-width="11" stroke-linecap="round" stroke-linejoin="round">
    <path d="M180 168V344"/>
    <path d="M364 168L398 256L364 344"/>
  </g>

  <g fill="url(#shellFill)">
    <rect x="208" y="182" width="96" height="94" rx="28"/>
  </g>

  <g stroke="url(#shellStroke)" stroke-width="12" stroke-linecap="round" stroke-linejoin="round">
    <path d="M256 154V182"/>
    <path d="M208 228H190"/>
    <path d="M304 228H322"/>
    <rect x="208" y="182" width="96" height="94" rx="28"/>
  </g>

  <g fill="url(#visorFill)" filter="url(#visorGlow)">
    <rect x="224" y="204" width="64" height="30" rx="15"/>
  </g>
  <g fill="#A8FFF7">
    <circle cx="244" cy="219" r="5"/>
    <circle cx="268" cy="219" r="5"/>
  </g>
  <path d="M236 250H276" stroke="#FFC857" stroke-width="10" stroke-linecap="round"/>

  <g fill="#E1F9FF">
    <circle cx="256" cy="146" r="7.5"/>
  </g>
</svg>
