<svg width="512" height="512" viewBox="0 0 512 512" fill="none" xmlns="http://www.w3.org/2000/svg" role="img" aria-labelledby="title desc">
  <title id="title">AITP Mark</title>
  <desc id="desc">A dark rounded-square AITP logo with a minimal robot head framed by ket brackets and a Penrose-style causal diamond.</desc>
  <defs>
    <linearGradient id="bg" x1="42" y1="34" x2="462" y2="480" gradientUnits="userSpaceOnUse">
      <stop stop-color="#061725"/>
      <stop offset="0.54" stop-color="#091D31"/>
      <stop offset="1" stop-color="#040B13"/>
    </linearGradient>
    <radialGradient id="portal" cx="0" cy="0" r="1" gradientUnits="userSpaceOnUse" gradientTransform="translate(256 256) rotate(90) scale(164)">
      <stop stop-color="#12324D"/>
      <stop offset="0.68" stop-color="#0A1C2F"/>
      <stop offset="1" stop-color="#060E18"/>
    </radialGradient>
    <linearGradient id="coneStroke" x1="186" y1="158" x2="334" y2="360" gradientUnits="userSpaceOnUse">
      <stop stop-color="#73ECF5"/>
      <stop offset="1" stop-color="#8090FF"/>
    </linearGradient>
    <linearGradient id="ketStroke" x1="170" y1="156" x2="388" y2="346" gradientUnits="userSpaceOnUse">
      <stop stop-color="#83F4EB"/>
      <stop offset="1" stop-color="#A98BFF"/>
    </linearGradient>
    <linearGradient id="shellStroke" x1="206" y1="182" x2="302" y2="278" gradientUnits="userSpaceOnUse">
      <stop stop-color="#F0FCFF"/>
      <stop offset="0.6" stop-color="#ADEFF8"/>
      <stop offset="1" stop-color="#9AABFF"/>
    </linearGradient>
    <linearGradient id="shellFill" x1="256" y1="188" x2="256" y2="274" gradientUnits="userSpaceOnUse">
      <stop stop-color="#E3FAFF" stop-opacity="0.18"/>
      <stop offset="1" stop-color="#7ACBFF" stop-opacity="0.08"/>
    </linearGradient>
    <linearGradient id="visorFill" x1="224" y1="208" x2="288" y2="236" gradientUnits="userSpaceOnUse">
      <stop stop-color="#8CF7EE"/>
      <stop offset="1" stop-color="#72A5FF"/>
    </linearGradient>
    <filter id="coreGlow" x="154" y="144" width="204" height="220" filterUnits="userSpaceOnUse" color-interpolation-filters="sRGB">
      <feGaussianBlur stdDeviation="18"/>
    </filter>
    <filter id="visorGlow" x="208" y="196" width="96" height="48" filterUnits="userSpaceOnUse" color-interpolation-filters="sRGB">
      <feGaussianBlur stdDeviation="6"/>
    </filter>
  </defs>

  <rect x="24" y="24" width="464" height="464" rx="96" fill="url(#bg)"/>
  <rect x="24.5" y="24.5" width="463" height="463" rx="95.5" stroke="#61DEF1" stroke-opacity="0.16"/>

  <circle cx="256" cy="256" r="146" fill="url(#portal)"/>
  <circle cx="256" cy="256" r="118" stroke="#7EE8F2" stroke-opacity="0.14" stroke-width="2"/>
  <circle cx="256" cy="256" r="88" stroke="#A98BFF" stroke-opacity="0.14" stroke-width="2"/>

  <circle cx="188" cy="320" r="84" fill="#1CE2C7" fill-opacity="0.08"/>
  <circle cx="304" cy="194" r="74" fill="#6BA8FF" fill-opacity="0.08"/>
  <circle cx="256" cy="242" r="66" fill="#8EF5F1" fill-opacity="0.1" filter="url(#coreGlow)"/>

  <g opacity="0.76" stroke="url(#coneStroke)" fill="none" stroke-linecap="round" stroke-linejoin="round">
    <path d="M256 154L334 256L256 358L178 256Z" stroke-width="6"/>
    <path d="M256 154V358" stroke-width="4" opacity="0.45"/>
    <path d="M202 256H310" stroke-width="4" opacity="0.7"/>
  </g>

  <g stroke="url(#ketStroke)" stroke-width="11" stroke-linecap="round" stroke-linejoin="round">
    <path d="M180 170V342"/>
    <path d="M364 170L398 256L364 342"/>
  </g>

  <g fill="url(#shellFill)">
    <rect x="210" y="188" width="92" height="88" rx="28"/>
  </g>

  <g stroke="url(#shellStroke)" stroke-width="12" stroke-linecap="round" stroke-linejoin="round">
    <path d="M256 160V188"/>
    <path d="M210 228H196"/>
    <path d="M302 228H316"/>
    <rect x="210" y="188" width="92" height="88" rx="28"/>
  </g>

  <g fill="url(#visorFill)" filter="url(#visorGlow)">
    <rect x="224" y="206" width="64" height="28" rx="14"/>
  </g>
  <g fill="#A9FFF7">
    <circle cx="244" cy="220" r="5"/>
    <circle cx="268" cy="220" r="5"/>
  </g>
  <path d="M238 252H274" stroke="#FFC857" stroke-width="10" stroke-linecap="round"/>

  <g fill="#E7FBFF">
    <circle cx="256" cy="152" r="7"/>
  </g>
</svg>
